<?xml version="1.0" standalone="no"?>
<!DOCTYPE svg PUBLIC "-//W3C//DTD SVG 20010904//EN"
 "http://www.w3.org/TR/2001/REC-SVG-20010904/DTD/svg10.dtd">
<svg version="1.0" xmlns="http://www.w3.org/2000/svg"
 width="300.000000pt" height="300.000000pt" viewBox="0 0 300.000000 300.000000"
 preserveAspectRatio="xMidYMid meet">
<metadata>
Created by potrace 1.10, written by Peter Selinger 2001-2011
</metadata>
<g transform="translate(0.000000,300.000000) scale(0.100000,-0.100000)"
fill="#000000" stroke="none">
<path d="M1170 2310 c-138 -5 -148 -7 -211 -38 -86 -41 -177 -137 -211 -219
-23 -58 -23 -59 -23 -518 l0 -460 31 -65 c45 -94 102 -153 187 -195 107 -53
156 -57 610 -53 395 4 403 4 462 27 120 48 186 108 239 220 l31 66 3 434 c3
463 1 485 -49 583 -24 47 -121 143 -169 168 -87 44 -131 49 -450 52 -168 2
-370 1 -450 -2z m808 -44 c129 -38 226 -138 268 -275 21 -70 20 -823 -1 -905
-43 -165 -162 -261 -364 -292 -117 -18 -748 -14 -819 5 -144 38 -267 158 -298
288 -4 15 -9 209 -11 430 -3 348 -2 410 12 465 33 128 99 209 213 263 75 36
137 40 588 38 292 -1 370 -4 412 -17z"/>
<path d="M1062 2225 c-29 -8 -65 -21 -80 -29 -42 -21 -120 -110 -145 -163 -22
-47 -22 -55 -22 -488 l0 -440 33 -67 c38 -79 91 -128 171 -160 55 -23 62 -23
491 -22 l435 0 56 26 c73 33 134 89 165 150 38 75 46 178 42 575 -3 345 -4
360 -26 415 -30 75 -101 149 -177 185 l-60 28 -415 2 c-336 2 -425 -1 -468
-12z m914 -36 c94 -35 168 -117 193 -214 16 -62 18 -796 2 -867 -24 -109 -109
-195 -224 -225 -78 -20 -801 -19 -880 2 -75 20 -131 56 -170 111 -68 97 -68
93 -67 545 0 385 1 412 20 463 35 91 117 168 210 197 14 4 213 8 442 8 402 1
419 0 474 -20z"/>
<path d="M1289 2142 c-36 -10 -91 -33 -122 -52 -250 -151 -335 -442 -208 -711
l22 -47 -25 -27 c-44 -47 -29 -91 63 -188 71 -75 142 -120 239 -154 67 -23 93
-27 207 -27 111 -1 140 3 198 22 108 38 220 131 267 222 24 47 25 73 5 90 -22
18 -19 28 16 61 29 27 31 31 24 81 -4 29 -13 60 -21 69 -18 20 -18 33 1 49 8
7 15 29 15 50 0 51 9 55 42 19 35 -38 59 -35 108 16 29 30 33 38 24 61 -5 15
-26 41 -46 57 l-38 30 -40 -32 c-22 -17 -40 -28 -41 -24 0 4 -1 31 -2 58 l-2
50 40 3 c47 4 85 35 85 69 0 24 -38 71 -128 161 -65 64 -91 67 -149 17 -47
-40 -57 -42 -75 -17 -67 92 -293 138 -459 94z m236 -23 c59 -11 164 -54 197
-80 16 -13 16 -15 -2 -37 l-20 -24 -28 20 c-33 24 -137 60 -195 68 -109 15
-272 -49 -356 -141 -27 -31 -65 -86 -83 -123 -32 -64 -33 -72 -33 -182 0 -109
2 -119 32 -183 68 -143 210 -244 359 -254 135 -9 245 30 346 125 42 39 48 42
48 23 0 -66 -55 -126 -158 -173 -188 -86 -407 -38 -558 123 -105 112 -138 205
-132 368 3 97 6 112 39 181 66 138 191 246 328 282 78 20 136 22 216 7z m467
-139 c106 -108 107 -123 12 -118 l-64 3 0 -162 0 -163 -45 0 -45 0 0 160 0
159 -72 3 c-61 3 -73 6 -73 20 0 22 163 188 184 188 9 0 55 -40 103 -90z
m-390 26 c85 -35 93 -45 77 -89 -10 -28 -9 -40 2 -65 12 -28 18 -31 64 -34
l50 -3 3 -124 c2 -115 4 -126 27 -153 30 -36 30 -40 5 -63 -15 -13 -20 -31
-20 -67 0 -43 -2 -49 -18 -44 -11 4 -31 -3 -50 -16 -17 -13 -52 -38 -78 -57
-78 -56 -133 -72 -241 -70 -84 1 -102 5 -156 32 -96 48 -191 156 -218 249 -11
39 -14 181 -4 221 8 30 26 35 45 12 28 -34 94 -6 113 48 4 9 12 17 18 17 7 0
6 -8 -4 -24 -29 -44 -50 -135 -43 -189 15 -106 91 -202 184 -228 132 -37 251
16 319 142 28 53 32 156 8 213 -24 56 -89 121 -148 146 -43 19 -64 22 -128 17
l-76 -5 23 26 c29 31 30 56 4 82 -27 27 -62 25 -98 -5 -34 -28 -63 -35 -42
-10 15 18 62 43 115 61 63 22 187 12 267 -20z m-257 -66 c0 -19 -6 -26 -26
-28 -14 -2 -31 4 -39 12 -18 22 5 48 39 44 20 -2 26 -9 26 -28z m-107 -32 c21
-21 14 -57 -13 -70 -48 -22 -77 36 -33 66 27 19 31 19 46 4z m273 -73 c49 -17
111 -71 135 -117 8 -16 18 -50 21 -76 24 -210 -224 -344 -379 -204 -54 49 -78
102 -78 177 0 165 147 272 301 220z m-357 -31 c22 -21 3 -56 -27 -52 -25 3
-34 32 -17 53 16 19 25 19 44 -1z m921 -92 c3 -11 17 -24 31 -31 29 -13 27
-35 -3 -39 -12 -2 -23 -12 -26 -23 -7 -25 -27 -25 -34 0 -3 11 -16 22 -29 25
-31 8 -31 23 1 38 13 6 27 19 30 30 4 10 10 18 15 18 5 0 11 -8 15 -18z m-135
-308 l0 -64 -47 0 -48 0 3 64 4 64 44 0 44 0 0 -64z m-890 -175 c91 -105 193
-155 343 -169 188 -18 334 39 407 159 24 38 28 40 73 41 56 0 58 -6 18 -75
-39 -69 -119 -140 -196 -177 -108 -50 -312 -57 -434 -13 -139 49 -321 219
-298 279 11 29 33 17 87 -45z"/>
<path d="M1369 1731 c-33 -33 -35 -45 -15 -82 11 -22 11 -29 0 -44 -18 -25
-18 -75 1 -102 22 -32 80 -46 120 -29 62 26 82 82 45 129 -17 22 -18 26 -5 37
23 19 18 68 -10 95 -36 37 -97 35 -136 -4z m92 -31 c25 -14 24 -36 -1 -50 -38
-20 -77 19 -48 48 15 15 24 15 49 2z m0 -110 c40 -22 11 -78 -35 -66 -34 8
-42 37 -16 58 26 21 26 21 51 8z"/>
<path d="M794 1104 c5 -49 39 -126 75 -168 36 -42 118 -86 191 -103 25 -6 862
-5 868 1 3 3 -183 6 -414 6 -445 0 -484 4 -558 49 -72 45 -129 125 -153 216
l-13 50 4 -51z"/>
<path d="M2020 875 c-30 -16 -38 -24 -25 -24 11 0 34 11 50 24 37 31 32 31
-25 0z"/>
</g>
</svg>
